<svg width="40" height="40" viewBox="0 0 40 40" fill="none" xmlns="http://www.w3.org/2000/svg">
  <g>
    <rect width="40" height="40"></rect>
    <path d="M25 6.10901C24 3.13236 17 0.155719 18 8.09341C19 16.0311 20.5116 20.0919 22 31.9065C23 39.8443 16 36.8676 15 33.891" stroke="#0095ff" stroke-linecap="round" stroke-width="4"></path>
    <path d="M30.9415 11.6C27.3735 13.66 21.5935 16.9971 16.9119 19.7M16.9119 19.7C13.4123 21.7205 10.6766 23.3 9.11772 24.2C7.55885 25.1 6 26 4.8 23.9215C3.6 21.8431 4.55887 19.9038 6.11772 19.0038C7.67656 18.1038 9.75503 16.9038 16.9119 19.7Z" fill="#0095ff" stroke-linecap="round"></path>
    <path d="M9.05847 26.4C12.6265 24.34 18.4065 21.0029 23.0881 18.3M23.0881 18.3C26.5877 16.2795 29.3234 14.7 30.8823 13.8C32.4412 12.9 34 12 35.2 14.0785C36.4 16.1569 35.4411 18.0962 33.8823 18.9962C32.3234 19.8962 30.245 21.0962 23.0881 18.3Z" fill="#0095ff" stroke-linecap="round"></path>
  </g>
</svg>
